name analog
datacolumns 19
datarows 42
range 0.0 0.0205
endheader
time	ground_force_vx	ground_force_vy	ground_force_vz	ground_force_px	ground_force_py	ground_force_pz	l_ground_force_vx	l_ground_force_vy	l_ground_force_vz	l_ground_force_px	l_ground_force_py	l_ground_force_pz	ground_torque_x	ground_torque_y	ground_torque_z	l_ground_torque_x	l_ground_torque_y	l_ground_torque_z
0.0	-0.0	-0.0	-0.0	1.5413222312927246	41.5025634765625	-390.578369140625	4.96024751663208	-36.62155532836914	-388.0039978027344	-0.0	-0.0	-0.0	-0.0	-0.0	-0.0	103145.671875	-13381.80859375	-1362.116455078125
0.0005	-0.0	-0.0	-0.0	1.2811511754989624	42.06954956054688	-393.2460632324219	5.443415641784668	-36.17997360229492	-386.0355224609375	-0.0	-0.0	-0.0	-0.0	-0.0	-0.0	102819.2734375	-13266.5283203125	-1378.088623046875
0.001	-0.0	-0.0	-0.0	1.0529369115829468	41.61360549926758	-396.9742431640625	5.514768600463867	-36.42041397094727	-385.2691955566406	-0.0	-0.0	-0.0	-0.0	-0.0	-0.0	102562.484375	-13135.1494140625	-1285.7978515625
0.0015	-0.0	-0.0	-0.0	1.149134397506714	42.01251983642578	-397.0162353515625	5.620762348175049	-36.39574432373047	-383.7746276855469	-0.0	-0.0	-0.0	-0.0	-0.0	-0.0	102108.796875	-13129.6181640625	-1308.044677734375
0.002	-0.0	-0.0	-0.0	1.459468960762024	42.40817260742188	-399.9977111816406	5.620737552642822	-36.47686004638672	-383.3403015136719	-0.0	-0.0	-0.0	-0.0	-0.0	-0.0	101951.765625	-12966.7421875	-1242.866455078125
0.0025	-0.0	-0.0	-0.0	1.3200523853302002	42.48316955566406	-400.35150146484375	5.602882385253906	-36.50864028930664	-382.3911743164063	-0.0	-0.0	-0.0	-0.0	-0.0	-0.0	101868.3515625	-12935.4287109375	-1145.5538330078125
0.003	-0.0	-0.0	-0.0	1.7521847486495972	42.44435119628906	-402.1995239257813	5.829967498779297	-36.639686584472656	-380.8970947265625	-0.0	-0.0	-0.0	-0.0	-0.0	-0.0	101243.234375	-12897.7685546875	-1113.39111328125
0.0035	-0.0	-0.0	-0.0	1.5553590059280396	42.25458908081055	-403.9380493164063	5.798056602478027	-36.44514083862305	-381.4433898925781	-0.0	-0.0	-0.0	-0.0	-0.0	-0.0	101259.765625	-12766.7109375	-1104.99560546875
0.004	-0.0	-0.0	-0.0	1.5485386848449707	42.52853393554688	-405.50335693359375	5.873242378234863	-36.60357284545898	-379.5999755859375	-0.0	-0.0	-0.0	-0.0	-0.0	-0.0	101026.9609375	-12625.8359375	-1121.714111328125
0.0045000000000000005	-0.0	-0.0	-0.0	1.580423355102539	42.6746711730957	-406.3577575683594	5.943622589111328	-36.395137786865234	-379.4027404785156	-0.0	-0.0	-0.0	-0.0	-0.0	-0.0	100864.6484375	-12659.3759765625	-1176.5166015625
0.005	-0.0	-0.0	-0.0	1.7268941402435305	42.7253303527832	-407.5440368652344	5.576671600341797	-36.33182907104492	-378.3811645507813	-0.0	-0.0	-0.0	-0.0	-0.0	-0.0	100686.046875	-12343.830078125	-1083.7855224609375
0.0055	-0.0	-0.0	-0.0	1.9052774906158447	42.610687255859375	-408.7807312011719	5.696333885192871	-36.6470947265625	-378.0063781738281	-0.0	-0.0	-0.0	-0.0	-0.0	-0.0	100495.9609375	-12233.1748046875	-1113.431884765625
0.006	-0.0	-0.0	-0.0	2.077414035797119	43.01819610595703	-409.10833740234375	5.683813571929932	-36.6472053527832	-378.0314025878906	-0.0	-0.0	-0.0	-0.0	-0.0	-0.0	100066.703125	-12142.41015625	-1064.693115234375
0.006500000000000001	-0.0	-0.0	-0.0	2.217936992645264	43.13296127319336	-408.85650634765625	5.709140300750732	-36.11735916137695	-376.160888671875	-0.0	-0.0	-0.0	-0.0	-0.0	-0.0	100017.15625	-12170.6279296875	-1085.6890869140625
0.007	-0.0	-0.0	-0.0	1.7902599573135376	43.170841217041016	-410.1197204589844	6.013950824737549	-35.946929931640625	-376.0883483886719	-0.0	-0.0	-0.0	-0.0	-0.0	-0.0	99842.9453125	-12112.3798828125	-1197.8880615234375
0.0075	-0.0	-0.0	-0.0	1.6117258071899414	43.10742950439453	-412.3651123046875	5.817321300506592	-35.574180603027344	-375.1663818359375	-0.0	-0.0	-0.0	-0.0	-0.0	-0.0	99670.7578125	-11699.6181640625	-1015.4873046875
0.008	-0.0	-0.0	-0.0	2.18691349029541	43.37485504150391	-411.4645690917969	5.854911804199219	-35.574012756347656	-374.1663818359375	-0.0	-0.0	-0.0	-0.0	-0.0	-0.0	99519.015625	-11626.73828125	-1041.1358642578125
0.0085	-0.0	-0.0	-0.0	1.6777808666229248	43.48990249633789	-412.0584106445313	5.6144700050354	-35.54248809814453	-374.39166259765625	-0.0	-0.0	-0.0	-0.0	-0.0	-0.0	99036.2109375	-11611.6201171875	-1039.3843994140625
0.009000000000000001	-0.0	-0.0	-0.0	1.6001626253128052	43.78337097167969	-411.9329528808594	5.279760837554932	-35.73895263671875	-373.2206115722656	-0.0	-0.0	-0.0	-0.0	-0.0	-0.0	99088.8125	-11638.0078125	-1181.3602294921875
0.0095	-0.0	-0.0	-0.0	0.8249483108520508	43.87268829345703	-412.63916015625	5.368734359741211	-35.91563034057617	-374.1888427734375	-0.0	-0.0	-0.0	-0.0	-0.0	-0.0	98916.28125	-11330.9267578125	-1238.811767578125
0.01	-0.0	-0.0	-0.0	0.8290050029754639	44.2608528137207	-414.3619079589844	4.8273138999938965	-35.62491607666016	-372.09375	-0.0	-0.0	-0.0	-0.0	-0.0	-0.0	98557.671875	-11173.6357421875	-1237.3095703125
0.0105	-0.0	-0.0	-0.0	0.6821717619895935	44.3661003112793	-414.4048461914063	4.701671600341797	-35.88984298706055	-372.8939208984375	-0.0	-0.0	-0.0	-0.0	-0.0	-0.0	98658.1484375	-11005.912109375	-1124.3233642578125
0.011	-0.0	-0.0	-0.0	0.2624180912971496	43.85215759277344	-414.529296875	4.785086631774902	-35.63538360595703	-372.914794921875	-0.0	-0.0	-0.0	-0.0	-0.0	-0.0	98519.9140625	-10460.7177734375	-1195.751708984375
0.0115	-0.0	-0.0	-0.0	-0.2464440912008285	44.45490264892578	-415.3193054199219	4.487729549407959	-35.94173812866211	-373.0376892089844	-0.0	-0.0	-0.0	-0.0	-0.0	-0.0	98202.8359375	-10480.5478515625	-1293.703369140625
0.012	-0.0	-0.0	-0.0	-1.3695666790008545	44.774845123291016	-415.7774353027344	3.960715055465698	-36.08736038208008	-372.6277160644531	-0.0	-0.0	-0.0	-0.0	-0.0	-0.0	98361.9921875	-10355.708984375	-1360.438720703125
0.0125	-0.0	-0.0	-0.0	-1.7263710498809814	45.01085662841797	-417.0007019042969	3.898286819458008	-35.9518928527832	-373.798828125	-0.0	-0.0	-0.0	-0.0	-0.0	-0.0	98262.3125	-9927.8076171875	-1629.1053466796875
0.013000000000000001	-0.0	-0.0	-0.0	-1.8300127983093264	44.85909271240234	-418.4991455078125	3.4597206115722656	-36.30509567260742	-373.8378601074219	-0.0	-0.0	-0.0	-0.0	-0.0	-0.0	98390.7265625	-9716.1435546875	-1697.6112060546875
0.0135	-0.0	-0.0	-0.0	-2.599583864212036	44.83259582519531	-416.15130615234375	2.572612762451172	-36.2262077331543	-374.29052734375	-0.0	-0.0	-0.0	-0.0	-0.0	-0.0	98677.5859375	-9395.6845703125	-1808.0584716796875
0.014	-0.0	-0.0	-0.0	-2.382009267807007	44.8684196472168	-417.2838439941406	2.6301934719085693	-36.706172943115234	-373.7147521972656	-0.0	-0.0	-0.0	-0.0	-0.0	-0.0	98396.78125	-9186.607421875	-1929.900146484375
0.0145	-0.0	-0.0	-0.0	-2.9484567642211914	45.06877136230469	-418.9772644042969	2.2442755699157715	-36.64892578125	-374.8483581542969	-0.0	-0.0	-0.0	-0.0	-0.0	-0.0	98519.5703125	-8951.505859375	-2064.931884765625
0.015	-0.0	-0.0	-0.0	-3.091165542602539	44.71668243408203	-417.9527893066406	2.2443506717681885	-36.50331878662109	-374.4304809570313	-0.0	-0.0	-0.0	-0.0	-0.0	-0.0	98475.1015625	-8838.228515625	-2143.486572265625
0.0155	-0.0	-0.0	-0.0	-3.095486879348755	44.378379821777344	-418.1650390625	2.124687433242798	-36.68003845214844	-374.2733459472656	-0.0	-0.0	-0.0	-0.0	-0.0	-0.0	98544.1875	-8472.5908203125	-2229.68505859375
0.016	-0.0	-0.0	-0.0	-2.850552082061768	43.754669189453125	-417.8118896484375	1.9783592224121092	-36.64924621582031	-374.41253662109375	-0.0	-0.0	-0.0	-0.0	-0.0	-0.0	98284.9609375	-8614.556640625	-2281.6689453125
0.0165	-0.0	-0.0	-0.0	-2.854736328125	43.758934020996094	-418.7320861816406	1.786771535873413	-36.71516418457031	-374.6232299804688	-0.0	-0.0	-0.0	-0.0	-0.0	-0.0	98391.4453125	-8567.0009765625	-2172.130126953125
0.017	-0.0	-0.0	-0.0	-2.470813035964966	43.42958450317383	-416.1531982421875	1.7432878017425537	-36.54249572753906	-374.8831787109375	-0.0	-0.0	-0.0	-0.0	-0.0	-0.0	98276.203125	-8321.80859375	-2174.87890625
0.0175	-0.0	-0.0	-0.0	-2.6647043228149414	43.344512939453125	-416.3685302734375	1.8938168287277224	-36.38064956665039	-373.6982421875	-0.0	-0.0	-0.0	-0.0	-0.0	-0.0	98154.4296875	-8351.677734375	-2252.03125
0.018000000000000002	-0.0	-0.0	-0.0	-2.528893232345581	43.15874099731445	-415.5850524902344	2.152167320251465	-36.35780715942383	-374.3967590332031	-0.0	-0.0	-0.0	-0.0	-0.0	-0.0	97958.5234375	-8215.78515625	-2191.2265625
0.0185	-0.0	-0.0	-0.0	-2.6107192039489746	43.53024291992188	-415.3250732421875	2.2756552696228027	-36.35409927368164	-375.1101684570313	-0.0	-0.0	-0.0	-0.0	-0.0	-0.0	98024.8203125	-8216.3291015625	-2245.244140625
0.019	-0.0	-0.0	-0.0	-2.590665102005005	43.55387115478516	-414.63323974609375	2.10192346572876	-36.59219741821289	-374.06256103515625	-0.0	-0.0	-0.0	-0.0	-0.0	-0.0	97882.265625	-8142.9765625	-2289.488037109375
0.0195	-0.0	-0.0	-0.0	-2.168471336364746	43.44084548950195	-412.9758911132813	1.5696029663085938	-36.36146545410156	-373.8343505859375	-0.0	-0.0	-0.0	-0.0	-0.0	-0.0	97892.234375	-8273.3974609375	-2280.771484375
0.02	-0.0	-0.0	-0.0	-1.8459261655807493	43.228248596191406	-412.8673706054688	2.251948118209839	-36.26962661743164	-372.5447998046875	-0.0	-0.0	-0.0	-0.0	-0.0	-0.0	97746.46875	-8256.115234375	-2163.96826171875
0.0205	-0.0	-0.0	-0.0	-1.6674296855926514	43.3481674194336	-412.1095275878906	2.108405351638794	-36.68072128295898	-372.5316162109375	-0.0	-0.0	-0.0	-0.0	-0.0	-0.0	97754.0390625	-8203.6416015625	-2212.09912109375
